<svg xmlns="http://www.w3.org/2000/svg" viewBox="0 0 70 170"><defs><linearGradient id="g" x1="0" y1="0" x2="0" y2="1"><stop offset="0" stop-color="#FFE9A0"/><stop offset="1" stop-color="#F2B94B"/></linearGradient><radialGradient id="o" cx=".4" cy=".35" r=".7"><stop offset="0" stop-color="#FFE4F1"/><stop offset="1" stop-color="#C9A8FF"/></radialGradient></defs><rect x="31" y="62" width="8" height="104" rx="4" fill="url(#g)" stroke="#B8707F" stroke-width="2.4"/><path d="M35 96 L22 104 Q18 92 26 90Z M35 96 L48 104 Q52 92 44 90Z" fill="#FF9CBF" stroke="#B8707F" stroke-width="1.8" stroke-linejoin="round"/><circle cx="35" cy="96" r="4.5" fill="#FF7FAA" stroke="#B8707F" stroke-width="1.8"/>
<circle cx="35" cy="38" r="30" fill="url(#o)" stroke="#B8707F" stroke-width="3"/>
<text x="35" y="52" text-anchor="middle" font-size="38" font-weight="700" fill="#fff" stroke="#9A73D8" stroke-width="1.6" paint-order="stroke" font-family="Noto Sans TC, Microsoft JhengHei, PingFang TC, sans-serif">ㄅ</text>
<polygon points="62.0,2.0 63.5,5.9 67.7,6.1 64.5,8.8 65.5,12.9 62.0,10.6 58.5,12.9 59.5,8.8 56.3,6.1 60.5,5.9" fill="#FFE27A"/><polygon points="8.0,65.0 9.3,68.2 12.8,68.5 10.1,70.7 10.9,74.0 8.0,72.2 5.1,74.0 5.9,70.7 3.2,68.5 6.7,68.2" fill="#FFE27A"/></svg>